<svg
    xmlns="http://www.w3.org/2000/svg"
    width="656"
    height="272"
    fill="none"
    viewBox="0 0 656 272"
><path
        d="M242.899.007 86 271.014h28.527L271.426.007zM156.899.007 0 271.014h28.527L185.426.007z"
    /><path
        d="m184.902.007-15.902 27h29.098L214 .007zM43.902 244.007l-15.902 27h29.098l15.902-27z"
    /><path
        d="m72.902 244.007-15.902 27h29.098l15.902-27zM129.902 244.007l-15.902 27h29.098l15.902-27zM412.229 271.007 569.128 0h-28.527L383.702 271.007zM498.229 271.007 655.128 0h-28.527L469.702 271.007z"
    /><path
        d="m470.226 271.007 15.902-27h-29.099l-15.901 27zM611.226 27.007l15.902-27h-29.099l-15.901 27z"
    /><path
        d="m582.226 27.007 15.902-27h-29.099l-15.901 27zM525.226 27.007l15.902-27h-29.099l-15.901 27zM289.327.007l-15.901 27h29.098l15.902-27zM204.327 244.007l-15.901 27h29.098l15.902-27z"
    /><path
        d="M317.324.007 160.426 271.014h28.527L345.851.007zM438.178.007l-15.901 27h29.098l15.902-27zM353.178 244.007l-15.901 27h29.098l15.902-27z"
    /><path
        d="M466.175.007 309.277 271.014h28.527L494.702.007zM391.75.007 234.851 271.014h28.527L420.277.007z"
    /><path
        d="m292.753 122.007-15.902 27h29.099l15.901-27zM348.753 122.007l-15.902 27h29.099l15.901-27z"
    /></svg>
