<svg width="56" height="56" viewBox="0 0 56 56" fill="none" xmlns="http://www.w3.org/2000/svg">
<rect width="56" height="56" fill="#29282B"/>
<path d="M36.6368 12.0249L18.1391 43.9755H21.5023L40 12.0249H36.6368Z" fill="#F1EFF6"/>
<path d="M26.4977 12.0249L8 43.9755H11.3632L29.8609 12.0249H26.4977Z" fill="#F1EFF6"/>
<path d="M29.7992 12.0249L27.9244 15.2081L31.355 15.2081L33.2298 12.0249L29.7992 12.0249Z" fill="#F1EFF6"/>
<path d="M13.1758 40.7915L11.3011 43.9747L14.7317 43.9747L16.6064 40.7915L13.1758 40.7915Z" fill="#F1EFF6"/>
<path d="M16.5948 40.7915L14.7201 43.9747L18.1507 43.9747L20.0254 40.7915L16.5948 40.7915Z" fill="#F1EFF6"/>
<path d="M23.3149 40.7915L21.4402 43.9747L24.8707 43.9747L26.7455 40.7915L23.3149 40.7915Z" fill="#F1EFF6"/>
<path d="M19.3632 43.9751L37.8609 12.0245L34.4977 12.0245L16 43.9751L19.3632 43.9751Z" fill="#F1EFF6"/>
<path d="M29.5023 43.9751L48 12.0245L44.6368 12.0245L26.1391 43.9751L29.5023 43.9751Z" fill="#F1EFF6"/>
<path d="M26.2008 43.9751L28.0756 40.7919L24.645 40.7919L22.7702 43.9751L26.2008 43.9751Z" fill="#F1EFF6"/>
<path d="M42.8242 15.2085L44.6989 12.0253L41.2683 12.0253L39.3936 15.2085L42.8242 15.2085Z" fill="#F1EFF6"/>
<path d="M39.4052 15.2085L41.2799 12.0253L37.8493 12.0253L35.9746 15.2085L39.4052 15.2085Z" fill="#F1EFF6"/>
<path d="M32.6851 15.2085L34.5598 12.0253L31.1293 12.0253L29.2545 15.2085L32.6851 15.2085Z" fill="#F1EFF6"/>
</svg>
